{"asset":{"version":"2.0","generator":"babylon.js glTF exporter for 3dsmax 2018 v20201012.1"},"scene":0,"scenes":[{"nodes":[0]}],"nodes":[{"children":[1],"rotation":[-0.5,-0.5,0.4999999,0.5000001],"name":"NEMA 17HS8401"},{"children":[2],"rotation":[2.98023224E-08,2.003489E-09,-2.00347827E-09,1.0],"name":"NEMA 17HS8401.f3z v3"},{"children":[3],"translation":[0.0,0.0480000041,2.54144062E-15],"name":"Flecha 17HS4401 v1:1"},{"mesh":0,"translation":[0.0,0.0,9.02389264E-17],"name":"Body1"}],"meshes":[{"primitives":[{"attributes":{"POSITION":1,"NORMAL":2,"TEXCOORD_0":3},"indices":0,"material":0}],"name":"Body1"}],"accessors":[{"bufferView":0,"componentType":5123,"count":3516,"type":"SCALAR","name":"accessorIndices"},{"bufferView":1,"componentType":5126,"count":3516,"max":[0.0025,0.0250012,0.002498477],"min":[-0.0025,0.0,-0.002498477],"type":"VEC3","name":"accessorPositions"},{"bufferView":1,"byteOffset":42192,"componentType":5126,"count":3516,"type":"VEC3","name":"accessorNormals"},{"bufferView":2,"componentType":5126,"count":3516,"type":"VEC2","name":"accessorUVs"}],"bufferViews":[{"buffer":0,"byteLength":7032,"name":"bufferViewScalar"},{"buffer":0,"byteOffset":7032,"byteLength":84384,"byteStride":12,"name":"bufferViewFloatVec3"},{"buffer":0,"byteOffset":91416,"byteLength":28128,"byteStride":8,"name":"bufferViewFloatVec2"}],"buffers":[{"uri":"shaft.bin","byteLength":119544}],"materials":[{"pbrMetallicRoughness":{"baseColorFactor":[0.8946013,0.8946013,0.900473952,1.0],"roughnessFactor":0.29},"name":"Material #47"}]}